<svg version="1.1" id="menu" xmlns="http://www.w3.org/2000/svg" xmlns:xlink="http://www.w3.org/1999/xlink" width="100%" height="100%"
	 viewBox="0 0 64 64">
<path id="menu" class="svg-img" style="fill:#484848;" d="M59.4,9.13H4.6c-2.52,0-4.57-2.04-4.57-4.57S2.08,0,4.6,0h54.8c2.52,0,4.57,2.04,4.57,4.57
	S61.93,9.13,59.4,9.13z M63.97,31.99c0-2.52-2.04-4.57-4.57-4.57H4.6c-2.52,0-4.57,2.04-4.57,4.57s2.04,4.56,4.57,4.56h54.8
	C61.93,36.55,63.97,34.51,63.97,31.99z M63.97,59.43c0-2.52-2.04-4.57-4.57-4.57H4.6c-2.52,0-4.57,2.04-4.57,4.57
	C0.03,61.96,2.08,64,4.6,64h54.8C61.93,64,63.97,61.96,63.97,59.43z"/>
</svg>
